<?xml version="1.0" encoding="UTF-8" standalone="no"?>
<svg
   width="128"
   height="128"
   version="1.1"
   viewBox="0 0 128 128"
   id="svg48"
   sodipodi:docname="cartridge.svg"
   inkscape:version="1.1.2 (0a00cf5339, 2022-02-04, custom)"
   xmlns:inkscape="http://www.inkscape.org/namespaces/inkscape"
   xmlns:sodipodi="http://sodipodi.sourceforge.net/DTD/sodipodi-0.dtd"
   xmlns="http://www.w3.org/2000/svg"
   xmlns:svg="http://www.w3.org/2000/svg">
  <defs
     id="defs52" />
  <sodipodi:namedview
     id="namedview50"
     pagecolor="#ffffff"
     bordercolor="#666666"
     borderopacity="1.0"
     inkscape:pageshadow="2"
     inkscape:pageopacity="0.0"
     inkscape:pagecheckerboard="0"
     showgrid="false"
     inkscape:zoom="2.8229029"
     inkscape:cx="67.12948"
     inkscape:cy="65.889621"
     inkscape:window-width="1366"
     inkscape:window-height="697"
     inkscape:window-x="-8"
     inkscape:window-y="-8"
     inkscape:window-maximized="1"
     inkscape:current-layer="svg48" />
  <path
     fill="#aaa"
     stroke="#777"
     stroke-linejoin="round"
     stroke-width="3"
     d="m10 4 h108 v100 h-6 v20 h-96 v-20 h-6 v-100 z"
     id="path2" />
  <path
     fill="#777"
     stroke="#777"
     stroke-linejoin="round"
     stroke-width="3"
     d="m60 94 h12 l-6 8 l-6 -8 z"
     id="path4" />
  <path
     fill="#777"
     stroke="#777"
     stroke-linejoin="round"
     stroke-width="3"
     d="m58 4 h44 v80 h-44 v-80 z"
     id="path6" />
  <line
     stroke="#777"
     stroke-width="3"
     x1="24"
     y1="4"
     x2="24"
     y2="124"
     id="line8" />
  <line
     stroke="#777"
     stroke-width="3"
     x1="50"
     y1="4"
     x2="50"
     y2="124"
     id="line10" />
  <line
     stroke="#777"
     stroke-width="3"
     x1="24"
     y1="10"
     x2="50"
     y2="10"
     id="line12" />
  <line
     stroke="#777"
     stroke-width="3"
     x1="24"
     y1="16"
     x2="50"
     y2="16"
     id="line14" />
  <line
     stroke="#777"
     stroke-width="3"
     x1="24"
     y1="22"
     x2="50"
     y2="22"
     id="line16" />
  <line
     stroke="#777"
     stroke-width="3"
     x1="24"
     y1="28"
     x2="50"
     y2="28"
     id="line18" />
  <line
     stroke="#777"
     stroke-width="3"
     x1="24"
     y1="34"
     x2="50"
     y2="34"
     id="line20" />
  <line
     stroke="#777"
     stroke-width="3"
     x1="24"
     y1="40"
     x2="50"
     y2="40"
     id="line22" />
  <line
     stroke="#777"
     stroke-width="3"
     x1="24"
     y1="46"
     x2="50"
     y2="46"
     id="line24" />
  <line
     stroke="#777"
     stroke-width="3"
     x1="24"
     y1="52"
     x2="50"
     y2="52"
     id="line26" />
  <line
     stroke="#777"
     stroke-width="3"
     x1="24"
     y1="58"
     x2="50"
     y2="58"
     id="line28" />
  <line
     stroke="#777"
     stroke-width="3"
     x1="24"
     y1="64"
     x2="50"
     y2="64"
     id="line30" />
  <line
     stroke="#777"
     stroke-width="3"
     x1="24"
     y1="70"
     x2="50"
     y2="70"
     id="line32" />
  <line
     stroke="#777"
     stroke-width="3"
     x1="24"
     y1="76"
     x2="50"
     y2="76"
     id="line34" />
  <line
     stroke="#777"
     stroke-width="3"
     x1="24"
     y1="82"
     x2="50"
     y2="82"
     id="line36" />
  <line
     stroke="#777"
     stroke-width="3"
     x1="24"
     y1="88"
     x2="50"
     y2="88"
     id="line38" />
  <line
     stroke="#777"
     stroke-width="3"
     x1="24"
     y1="94"
     x2="50"
     y2="94"
     id="line40" />
  <line
     stroke="#777"
     stroke-width="3"
     x1="24"
     y1="100"
     x2="50"
     y2="100"
     id="line42" />
  <line
     stroke="#777"
     stroke-width="3"
     x1="24"
     y1="106"
     x2="50"
     y2="106"
     id="line44" />
  <line
     stroke="#777"
     stroke-width="3"
     x1="24"
     y1="112"
     x2="50"
     y2="112"
     id="line46" />
  <g
     aria-label="HEXA"
     id="text3372"
     style="font-size:13.3333px;line-height:1.25;font-family:Conthrax;-inkscape-font-specification:'Conthrax, Normal';fill:#666666">
    <path
       d="m 59.487717,107.89566 q 0.293333,0 0.293333,0.29334 v 3.46665 h 6.239984 V 108.189 q 0,-0.29334 0.293333,-0.29334 h 1.439996 q 0.306666,0 0.306666,0.29334 v 8.74664 q 0,0.29333 -0.306666,0.29333 h -1.439996 q -0.293333,0 -0.293333,-0.29333 v -3.54666 H 59.78105 v 3.54666 q 0,0.29333 -0.293333,0.29333 h -1.439996 q -0.306666,0 -0.306666,-0.29333 V 108.189 q 0,-0.29334 0.306666,-0.29334 z"
       id="path4530"
       style="fill:#666666" />
    <path
       d="m 79.314336,107.89566 q 0.306666,0 0.306666,0.29334 v 1.26666 q 0,0.29333 -0.306666,0.29333 h -5.826652 q -0.519999,0 -0.866665,0.0933 -0.333332,0.08 -0.546665,0.29333 -0.199999,0.2 -0.279999,0.56 -0.08,0.34666 -0.08,0.86666 v 0.13333 h 7.533314 q 0.293333,0 0.293333,0.29334 v 1.05333 q 0,0.29333 -0.293333,0.29333 h -7.533314 v 0.22667 q 0,0.51999 0.08,0.87999 0.08,0.34667 0.279999,0.56 0.213333,0.2 0.546665,0.29333 0.346666,0.08 0.866665,0.08 h 5.826652 q 0.306666,0 0.306666,0.29334 v 1.26666 q 0,0.29333 -0.306666,0.29333 h -5.866652 q -1.013331,0 -1.719996,-0.18666 -0.706665,-0.18667 -1.159997,-0.6 -0.439999,-0.42667 -0.653332,-1.09333 -0.199999,-0.68 -0.199999,-1.64 v -2.29333 q 0,-0.95999 0.199999,-1.62666 0.213333,-0.66666 0.653332,-1.08 0.453332,-0.42666 1.159997,-0.61333 0.706665,-0.2 1.719996,-0.2 z"
       id="path4532"
       style="fill:#666666" />
    <path
       d="m 91.540976,107.89566 q 0.186666,0 0.199999,0.13334 0.02667,0.12 -0.06667,0.21333 l -4.093323,4.14666 4.279989,4.49332 q 0.09333,0.0933 0.06667,0.22666 -0.01333,0.12 -0.2,0.12 H 89.90098 q -0.159999,0 -0.253333,-0.04 -0.09333,-0.04 -0.173332,-0.14666 l -3.293325,-3.45333 -3.306659,3.45333 q -0.09333,0.10666 -0.186666,0.14666 -0.08,0.04 -0.253333,0.04 h -1.733329 q -0.173333,0 -0.199999,-0.12 -0.01333,-0.13333 0.08,-0.22666 l 4.386655,-4.55999 -3.95999,-4.07999 q -0.08,-0.0933 -0.06667,-0.21333 0.01333,-0.13334 0.199999,-0.13334 h 1.826662 q 0.16,0 0.253333,0.0533 0.09333,0.04 0.173333,0.13333 l 2.906659,3.09333 3.079992,-3.09333 q 0.08,-0.0933 0.173333,-0.13333 0.09333,-0.0533 0.253333,-0.0533 z"
       id="path4534"
       style="fill:#666666" />
    <path
       d="m 98.954303,107.89566 q 0.506665,0 0.853331,0.21334 0.346666,0.2 0.679996,0.79999 l 4.41332,8.01332 q 0.0667,0.13333 0.0267,0.22666 -0.0267,0.08 -0.18667,0.08 h -1.69332 q -0.22667,0 -0.30667,-0.17333 l -0.94666,-1.72 h -6.266655 l -0.919998,1.72 q -0.09333,0.17333 -0.306666,0.17333 h -1.733329 q -0.173333,0 -0.213333,-0.08 -0.02667,-0.0933 0.04,-0.22666 l 4.373322,-8.01332 q 0.333333,-0.59999 0.653332,-0.79999 0.319999,-0.21334 0.746665,-0.21334 z m -2.586661,5.89332 h 4.586658 l -2.119997,-3.90665 q -0.05333,-0.0933 -0.146666,-0.0933 h -0.08 q -0.09333,0 -0.146667,0.0933 z"
       id="path4536"
       style="fill:#666666" />
  </g>
</svg>
