<?xml version="1.0" encoding="UTF-8" standalone="no"?>
<svg
   width="128"
   height="128"
   version="1.1"
   viewBox="0 0 128 128"
   id="svg6"
   sodipodi:docname="folder.svg"
   inkscape:version="1.1.2 (0a00cf5339, 2022-02-04, custom)"
   xmlns:inkscape="http://www.inkscape.org/namespaces/inkscape"
   xmlns:sodipodi="http://sodipodi.sourceforge.net/DTD/sodipodi-0.dtd"
   xmlns="http://www.w3.org/2000/svg"
   xmlns:svg="http://www.w3.org/2000/svg">
  <defs
     id="defs10" />
  <sodipodi:namedview
     id="namedview8"
     pagecolor="#ffffff"
     bordercolor="#666666"
     borderopacity="1.0"
     inkscape:pageshadow="2"
     inkscape:pageopacity="0.0"
     inkscape:pagecheckerboard="0"
     showgrid="false"
     inkscape:zoom="6.4921875"
     inkscape:cx="81.405535"
     inkscape:cy="64.077016"
     inkscape:window-width="1920"
     inkscape:window-height="1017"
     inkscape:window-x="-8"
     inkscape:window-y="-8"
     inkscape:window-maximized="1"
     inkscape:current-layer="svg6" />
  <path
     d="m10 19h38a6 6 90 0 1 6 6v6h64a6 6 90 0 1 6 6v66a6 6 90 0 1-6 6h-108a6 6 90 0 1-6-6v-78a6 6 90 0 1 6-6z"
     fill="#aaa"
     stroke="#aaa"
     stroke-linejoin="round"
     stroke-width="3"
     id="path2" />
  <path
     d="m10 35h108a6 6 90 0 1 6 6v62a6 6 90 0 1-6 6h-108a6 6 90 0 1-6-6v-62a6 6 90 0 1 6-6z"
     fill="#777"
     stroke="#777"
     stroke-linejoin="round"
     stroke-width="3"
     id="path4" />
  <g
     aria-label="HEXA"
     id="text1181"
     style="font-size:40px;line-height:1.25;fill:#999999">
    <path
       d="m 31.592692,84.996373 q 0.586667,0 0.586667,0.586667 v 6.933342 H 44.659375 V 85.58304 q 0,-0.586667 0.586667,-0.586667 h 2.880004 q 0.613334,0 0.613334,0.586667 v 17.49336 q 0,0.58666 -0.613334,0.58666 h -2.880004 q -0.586667,0 -0.586667,-0.58666 V 95.983053 H 32.179359 v 7.093347 q 0,0.58666 -0.586667,0.58666 h -2.880004 q -0.613334,0 -0.613334,-0.58666 V 85.58304 q 0,-0.586667 0.613334,-0.586667 z"
       style="font-weight:600;font-size:26.6667px;font-family:Conthrax;-inkscape-font-specification:'Conthrax, Semi-Bold';fill:#999999"
       id="path3183" />
    <path
       d="m 71.246079,84.996373 q 0.613334,0 0.613334,0.586667 v 2.533337 q 0,0.586667 -0.613334,0.586667 H 59.592731 q -1.040002,0 -1.733336,0.186667 -0.666667,0.16 -1.093335,0.586667 -0.4,0.400001 -0.56,1.120002 -0.16,0.693334 -0.16,1.733335 v 0.266667 h 15.066685 q 0.586668,0 0.586668,0.586668 v 2.106669 q 0,0.586668 -0.586668,0.586668 H 56.04606 v 0.453333 q 0,1.040002 0.16,1.760003 0.16,0.693334 0.56,1.120001 0.426668,0.400001 1.093335,0.586667 0.693334,0.160001 1.733336,0.160001 h 11.653348 q 0.613334,0 0.613334,0.586668 v 2.53334 q 0,0.58666 -0.613334,0.58666 H 59.512731 q -2.02667,0 -3.440005,-0.37333 -1.413335,-0.37333 -2.320003,-1.2 -0.880001,-0.85334 -1.306668,-2.186672 -0.400001,-1.360001 -0.400001,-3.280004 v -4.586672 q 0,-1.920003 0.400001,-3.253338 0.426667,-1.333335 1.306668,-2.160002 0.906668,-0.853335 2.320003,-1.226669 1.413335,-0.4 3.440005,-0.4 z"
       style="font-weight:600;font-size:26.6667px;font-family:Conthrax;-inkscape-font-specification:'Conthrax, Semi-Bold';fill:#999999"
       id="path3185" />
    <path
       d="m 95.699454,84.996373 q 0.373334,0 0.4,0.266667 0.05333,0.24 -0.133333,0.426667 l -8.186677,8.293344 8.560011,8.986679 q 0.186666,0.18667 0.133333,0.45333 -0.02667,0.24 -0.4,0.24 H 92.41945 q -0.320001,0 -0.506668,-0.08 -0.186667,-0.08 -0.346667,-0.29333 l -6.586675,-6.906676 -6.613342,6.906676 q -0.186666,0.21333 -0.373333,0.29333 -0.160001,0.08 -0.506668,0.08 h -3.466671 q -0.346667,0 -0.4,-0.24 -0.02667,-0.26666 0.16,-0.45333 l 8.773344,-9.120013 -7.92001,-8.16001 q -0.16,-0.186667 -0.133333,-0.426667 0.02667,-0.266667 0.4,-0.266667 h 3.653338 q 0.320001,0 0.506668,0.106667 0.186667,0.08 0.346667,0.266667 l 5.81334,6.186674 6.160008,-6.186674 q 0.16,-0.186667 0.346667,-0.266667 0.186667,-0.106667 0.506668,-0.106667 z"
       style="font-weight:600;font-size:26.6667px;font-family:Conthrax;-inkscape-font-specification:'Conthrax, Semi-Bold';fill:#999999"
       id="path3187" />
    <path
       d="m 110.52616,84.996373 q 1.01334,0 1.70667,0.426667 0.69333,0.400001 1.36,1.600002 l 8.82668,16.026688 q 0.13333,0.26667 0.0533,0.45333 -0.0533,0.16 -0.37333,0.16 h -3.38667 q -0.45334,0 -0.61334,-0.34666 l -1.89333,-3.440008 h -12.53335 l -1.84,3.440008 q -0.18667,0.34666 -0.61334,0.34666 h -3.466669 q -0.346667,0 -0.426667,-0.16 -0.05333,-0.18666 0.08,-0.45333 l 8.746676,-16.026688 q 0.66667,-1.200001 1.30667,-1.600002 0.64,-0.426667 1.49334,-0.426667 z m -5.17334,11.786681 h 9.17335 l -4.24001,-7.813343 q -0.10667,-0.186667 -0.29333,-0.186667 h -0.16 q -0.18667,0 -0.29334,0.186667 z"
       style="font-weight:600;font-size:26.6667px;font-family:Conthrax;-inkscape-font-specification:'Conthrax, Semi-Bold';fill:#999999"
       id="path3189" />
  </g>
</svg>
